<svg width="423" height="324" viewBox="0 0 423 324" fill="none" xmlns="http://www.w3.org/2000/svg">
<path d="M354.479 0.0078125C367.851 0.346545 378.588 11.2836 378.588 24.7256V134.065L363.228 125.846V65.4775H15.3604V299.273C15.3604 304.453 19.5629 308.652 24.7471 308.652H72.2715V184.845C72.2716 182.34 73.3748 179.962 75.2871 178.342L117.002 143.004V120.51C117.002 120.189 117.385 119.928 117.855 119.928H154.622C155.092 119.928 155.476 120.189 155.476 120.51V177.87L199.719 142.506V131.559C199.719 131.282 200.006 131.058 200.359 131.058H227.977C228.33 131.058 228.618 131.282 228.618 131.559V190.823L292.583 141.715L292.847 141.519C298.446 137.531 306.315 141.514 306.315 148.476V308.652H353.841C359.025 308.652 363.228 304.453 363.228 299.273V256.289L378.588 241.268V299.273L378.58 299.912C378.247 313.06 367.639 323.658 354.479 323.991L353.841 324H24.7471L24.1084 323.991C10.9484 323.658 0.342274 313.061 0.00878906 299.912L0 299.273V24.7256C7.14677e-05 11.2833 10.7362 0.346226 24.1084 0.0078125L24.7471 0H353.841L354.479 0.0078125ZM212.764 222.351C207.151 226.66 199.031 222.662 199.03 215.591V162.71L130.646 217.371C125.059 221.837 116.782 217.862 116.782 210.713V163.311L87.6318 188.004V308.261H117.002V235.643C117.002 231.876 120.059 228.822 123.829 228.822H165.553C169.323 228.822 172.38 231.876 172.38 235.643V308.261H199.366V235.643C199.366 231.876 202.422 228.822 206.192 228.822H247.917C251.687 228.822 254.743 231.876 254.743 235.643V308.261H290.955V162.318L212.764 222.351ZM343.051 133.014C347.376 133.015 419.964 180.986 422.354 185.421C423.72 188.036 422.81 193.72 420.648 195.539C419.738 196.221 413.707 198.153 406.994 199.858C400.396 201.563 394.935 203.382 394.934 204.064C394.934 204.633 398.347 210.317 402.443 216.569C408.246 225.436 409.725 228.393 409.156 230.78C408.132 235.1 404.263 237.714 399.599 237.373C395.73 237.032 395.047 236.236 387.538 224.868C383.215 218.162 379.347 212.593 379.005 212.704C378.664 212.704 375.591 216.342 372.178 220.775C360.004 236.463 357.273 238.056 351.129 232.713C348.398 230.326 347.829 228.165 342.709 194.97C339.637 175.53 336.452 154.954 335.655 149.043L334.176 138.471L337.248 135.742C339.069 134.264 341.572 133.014 343.051 133.014ZM355.68 160.298C355.339 160.298 355.111 160.638 355.111 161.093C355.111 163.138 362.047 205.063 362.393 205.429C362.62 205.656 365.238 202.587 368.31 198.494C373.885 190.764 376.16 189.4 387.993 186.444C390.724 185.762 392.544 184.739 391.976 184.284C391.406 183.716 383.101 178.145 373.657 171.779C364.1 165.527 356.021 160.298 355.68 160.298ZM226.14 113.947C227.504 113.947 228.617 115.075 228.617 116.455V123.533C228.617 123.809 228.33 124.035 227.977 124.035H200.358C200.005 124.035 199.718 123.809 199.718 123.533V116.455C199.719 115.074 200.832 113.947 202.196 113.947H226.14ZM152.177 100.072C153.993 100.072 155.475 101.382 155.475 102.982V111.196C155.475 111.517 155.092 111.778 154.622 111.778H117.855C117.385 111.778 117.002 111.517 117.002 111.196V102.982C117.002 101.38 118.483 100.072 120.3 100.072H152.177ZM24.7471 15.3467C19.5629 15.3467 15.3604 19.5459 15.3604 24.7256V50.1299H363.228V24.7256C363.227 19.5461 359.025 15.347 353.841 15.3467H24.7471ZM48.3965 24.707C52.0929 24.8944 55.0322 27.9487 55.0322 31.6885L55.0234 32.0479C54.9938 32.633 54.8906 33.1988 54.7256 33.7373C54.711 33.7848 54.6952 33.8318 54.6797 33.8789C54.658 33.9447 54.6359 34.0103 54.6123 34.0752C54.6038 34.0985 54.5946 34.1214 54.5859 34.1445C54.5547 34.2276 54.5225 34.3101 54.4883 34.3916C54.4757 34.4215 54.4622 34.4508 54.4492 34.4805C54.4196 34.5483 54.3901 34.616 54.3584 34.6826C54.3398 34.7217 54.3201 34.7601 54.3008 34.7988C54.2671 34.8664 54.2331 34.9337 54.1973 35C54.1849 35.023 54.1718 35.0455 54.1592 35.0684C54.1208 35.1377 54.0817 35.2065 54.041 35.2744C54.0118 35.3231 53.9815 35.371 53.9512 35.4189C53.9263 35.4582 53.9016 35.4974 53.876 35.5361C53.8453 35.5825 53.8139 35.6283 53.7822 35.6738C53.7492 35.7212 53.7167 35.7689 53.6826 35.8154C53.6481 35.8624 53.6118 35.908 53.5762 35.9541C53.5453 35.9941 53.5142 36.0339 53.4824 36.0732C53.4444 36.1204 53.4055 36.1668 53.3662 36.2129C53.334 36.2507 53.3015 36.2881 53.2686 36.3252C53.2309 36.3676 53.193 36.4097 53.1543 36.4512C53.1136 36.4948 53.0721 36.5375 53.0303 36.5801C52.9964 36.6146 52.9623 36.6488 52.9277 36.6826C52.8836 36.7258 52.8392 36.7686 52.7939 36.8105C52.7598 36.8422 52.7252 36.8733 52.6904 36.9043C52.6403 36.949 52.5895 36.9929 52.5381 37.0361C52.5059 37.0632 52.4741 37.0907 52.4414 37.1172C52.3863 37.1619 52.3299 37.205 52.2734 37.248C52.2448 37.2699 52.2165 37.2921 52.1875 37.3135C52.1225 37.3614 52.0569 37.4084 51.9902 37.4541C51.968 37.4694 51.9453 37.484 51.9229 37.499C51.8649 37.5378 51.8062 37.5753 51.7471 37.6123C51.699 37.6424 51.6514 37.6732 51.6025 37.7021C51.5639 37.7251 51.5244 37.7464 51.4854 37.7686C51.4306 37.7996 51.3759 37.8307 51.3203 37.8604C51.268 37.8882 51.2152 37.9149 51.1621 37.9414C51.1196 37.9627 51.0772 37.9844 51.0342 38.0049C50.9697 38.0355 50.9044 38.0641 50.8389 38.0928C50.8019 38.109 50.7649 38.1251 50.7275 38.1406C50.6668 38.166 50.6056 38.1902 50.5439 38.2139C50.4992 38.2311 50.4544 38.2484 50.4092 38.2646C50.3494 38.2862 50.289 38.3062 50.2285 38.3262C50.1792 38.3424 50.1299 38.3588 50.0801 38.374C50.0367 38.3872 49.9929 38.3987 49.9492 38.4111C49.8824 38.4301 49.8157 38.4498 49.748 38.4668C49.7147 38.4752 49.681 38.4823 49.6475 38.4902C49.5681 38.5089 49.4885 38.527 49.4082 38.543C49.378 38.549 49.3477 38.554 49.3174 38.5596C49.2406 38.5738 49.1636 38.5879 49.0859 38.5996C49.0257 38.6087 48.965 38.6146 48.9043 38.6221C48.8481 38.629 48.792 38.6379 48.7354 38.6436C48.7049 38.6466 48.6742 38.6478 48.6436 38.6504C48.4433 38.6676 48.2408 38.6787 48.0361 38.6787C47.9153 38.6787 47.7951 38.676 47.6758 38.6699C47.5597 38.664 47.4446 38.654 47.3301 38.6426C47.2948 38.639 47.2597 38.6339 47.2246 38.6299C47.0317 38.6076 46.8411 38.5796 46.6533 38.542C46.5917 38.5296 46.5307 38.5149 46.4697 38.501C46.4133 38.4881 46.3567 38.4762 46.3008 38.4619C46.2762 38.4556 46.252 38.4479 46.2275 38.4414C46.1374 38.4174 46.0477 38.3927 45.959 38.3652C45.9485 38.362 45.9382 38.3578 45.9277 38.3545C45.8374 38.326 45.7479 38.2957 45.6592 38.2637C45.6147 38.2476 45.5705 38.2308 45.5264 38.2139C45.4622 38.1892 45.3982 38.1642 45.335 38.1377C45.3081 38.1264 45.2816 38.1141 45.2549 38.1025C45.1761 38.0684 45.0977 38.034 45.0205 37.9971C44.9923 37.9836 44.9646 37.969 44.9365 37.9551C44.8705 37.9224 44.805 37.8891 44.7402 37.8545C44.6912 37.8283 44.643 37.8008 44.5947 37.7734C44.5503 37.7483 44.5058 37.7234 44.4619 37.6973C44.4119 37.6675 44.3627 37.6364 44.3135 37.6055C44.2648 37.5748 44.2159 37.5445 44.168 37.5127C44.1242 37.4836 44.0811 37.4538 44.0381 37.4238C43.9937 37.3929 43.9499 37.3611 43.9062 37.3291C43.8592 37.2946 43.8128 37.2593 43.7666 37.2236C43.722 37.1892 43.6776 37.1546 43.6338 37.1191C43.6021 37.0935 43.5703 37.0682 43.5391 37.042C43.4786 36.9912 43.419 36.9395 43.3604 36.8867C43.3381 36.8667 43.316 36.8465 43.2939 36.8262C43.2381 36.7746 43.1831 36.7222 43.1289 36.6689C43.101 36.6415 43.0733 36.6138 43.0459 36.5859C42.9979 36.5372 42.9508 36.4877 42.9043 36.4375C42.8741 36.4049 42.8441 36.3721 42.8145 36.3389C42.7697 36.2888 42.7259 36.2379 42.6826 36.1865C42.6546 36.1533 42.627 36.1197 42.5996 36.0859C42.5606 36.0379 42.5221 35.9895 42.4844 35.9404C42.4525 35.899 42.4206 35.8576 42.3896 35.8154C42.3564 35.7701 42.3242 35.7239 42.292 35.6777C42.2586 35.6299 42.2255 35.5819 42.1934 35.5332C42.1671 35.4935 42.1416 35.4533 42.1162 35.4131C42.0855 35.3645 42.0549 35.316 42.0254 35.2666C41.9932 35.2128 41.9624 35.1582 41.9316 35.1035C41.9066 35.059 41.8825 35.0139 41.8584 34.9688C41.8368 34.9283 41.8157 34.8876 41.7949 34.8467C41.7637 34.7852 41.7326 34.7236 41.7031 34.6611C41.6806 34.6133 41.6592 34.565 41.6377 34.5166C41.618 34.4721 41.5979 34.4278 41.5791 34.3828C41.55 34.3132 41.523 34.2426 41.4961 34.1719C41.4818 34.1344 41.4667 34.0973 41.4531 34.0596C41.4353 34.0101 41.4191 33.9601 41.4023 33.9102C41.3807 33.8457 41.3596 33.7811 41.3398 33.7158C41.3311 33.687 41.3228 33.6579 41.3145 33.6289C41.2919 33.5509 41.2698 33.4726 41.25 33.3936C41.2358 33.337 41.2237 33.2798 41.2109 33.2227C41.1747 33.0608 41.142 32.8973 41.1172 32.7314C41.1084 32.6725 41.1021 32.6131 41.0947 32.5537C41.0597 32.2702 41.04 31.9815 41.04 31.6885C41.0401 27.828 44.1723 24.6982 48.0361 24.6982L48.3965 24.707ZM80.5381 24.6982C84.4018 24.6984 87.5342 27.8281 87.5342 31.6885C87.5342 31.809 87.5314 31.9288 87.5254 32.0479C87.4957 32.633 87.3926 33.1988 87.2275 33.7373C87.213 33.7848 87.1972 33.8318 87.1816 33.8789C87.1599 33.9447 87.1379 34.0103 87.1143 34.0752C87.1058 34.0984 87.0966 34.1214 87.0879 34.1445C87.0578 34.2245 87.028 34.3043 86.9951 34.3828C86.9835 34.4105 86.9699 34.4373 86.958 34.4648C86.9238 34.5437 86.8886 34.6219 86.8516 34.6992C86.8379 34.7277 86.8236 34.7559 86.8096 34.7842C86.7769 34.8502 86.7437 34.9157 86.709 34.9805C86.6827 35.0295 86.6553 35.0777 86.6279 35.126C86.603 35.17 86.5786 35.2144 86.5527 35.2578C86.5216 35.3101 86.4895 35.3617 86.457 35.4131C86.4274 35.4601 86.397 35.5065 86.3662 35.5527C86.3397 35.5925 86.3124 35.6317 86.2852 35.6709C86.2517 35.7191 86.2183 35.7672 86.1836 35.8145C86.1492 35.8614 86.1146 35.9081 86.0791 35.9541C86.0481 35.9943 86.0163 36.0338 85.9844 36.0732C85.9463 36.1204 85.9074 36.1668 85.8682 36.2129C85.837 36.2494 85.8053 36.2854 85.7734 36.3213C85.7317 36.3684 85.6895 36.415 85.6465 36.4609C85.609 36.501 85.5716 36.541 85.5332 36.5801C85.5039 36.61 85.4742 36.6396 85.4443 36.6689C85.3959 36.7166 85.3467 36.7633 85.2969 36.8096C85.2626 36.8414 85.2283 36.8732 85.1934 36.9043C85.1484 36.9444 85.1026 36.9835 85.0566 37.0225C85.0191 37.0543 84.9816 37.0862 84.9434 37.1172C84.891 37.1597 84.8378 37.2012 84.7842 37.2422C84.7491 37.269 84.7134 37.2951 84.6777 37.3213C84.6173 37.3657 84.556 37.4087 84.4941 37.4512C84.4693 37.4682 84.445 37.4862 84.4199 37.5029C84.3677 37.5378 84.3149 37.572 84.2617 37.6055C84.2097 37.6382 84.1574 37.6707 84.1045 37.7021C84.0659 37.7251 84.0264 37.7464 83.9873 37.7686C83.9326 37.7996 83.8779 37.8307 83.8223 37.8604C83.7736 37.8863 83.7242 37.9108 83.6748 37.9355C83.6286 37.9587 83.5829 37.9827 83.5361 38.0049C83.4692 38.0367 83.4011 38.066 83.333 38.0957C83.3011 38.1096 83.2695 38.1242 83.2373 38.1377C83.1743 38.1641 83.1108 38.1893 83.0469 38.2139C83.0036 38.2305 82.9606 38.2479 82.917 38.2637C82.8554 38.2859 82.7929 38.3056 82.7305 38.3262C82.6811 38.3424 82.6318 38.3588 82.582 38.374C82.5416 38.3864 82.5007 38.3976 82.46 38.4092C82.3884 38.4296 82.3166 38.4496 82.2441 38.4678C82.2195 38.4739 82.1947 38.4794 82.1699 38.4854C82.0839 38.5059 81.9974 38.5256 81.9102 38.543C81.8839 38.5482 81.8574 38.5517 81.8311 38.5566C81.7491 38.572 81.6669 38.5872 81.584 38.5996C81.5299 38.6077 81.4754 38.6133 81.4209 38.6201C81.3598 38.6278 81.2989 38.6374 81.2373 38.6436C81.2046 38.6468 81.1716 38.6476 81.1387 38.6504C80.9406 38.6672 80.7405 38.6787 80.5381 38.6787C80.4173 38.6787 80.297 38.676 80.1777 38.6699C80.0608 38.664 79.9445 38.6542 79.8291 38.6426C79.8007 38.6397 79.7725 38.635 79.7441 38.6318C79.5453 38.6094 79.3487 38.5807 79.1553 38.542C79.0907 38.5291 79.0268 38.5137 78.9629 38.499C78.9107 38.487 78.8584 38.4761 78.8066 38.4629C78.7673 38.4529 78.7285 38.4413 78.6895 38.4307C78.6151 38.4104 78.5411 38.3898 78.4678 38.3672C78.437 38.3577 78.4066 38.3468 78.376 38.3369C78.3062 38.3143 78.2367 38.2913 78.168 38.2666C78.1119 38.2464 78.0564 38.2247 78.001 38.2031C77.946 38.1817 77.8912 38.1604 77.8369 38.1377C77.81 38.1264 77.7836 38.1141 77.7568 38.1025C77.6781 38.0684 77.5997 38.034 77.5225 37.9971C77.4942 37.9836 77.4665 37.969 77.4385 37.9551C77.3725 37.9224 77.307 37.8891 77.2422 37.8545C77.19 37.8266 77.1383 37.7978 77.0869 37.7686C77.0457 37.7451 77.0046 37.7215 76.9639 37.6973C76.9138 37.6675 76.8647 37.6364 76.8154 37.6055C76.7657 37.5742 76.7159 37.5432 76.667 37.5107C76.6243 37.4823 76.5821 37.4532 76.54 37.4238C76.4944 37.392 76.4491 37.36 76.4043 37.3271C76.3608 37.2953 76.3181 37.2624 76.2754 37.2295C76.2241 37.19 76.1732 37.1502 76.123 37.1094C76.0985 37.0894 76.0741 37.0692 76.0498 37.0488C75.9864 36.9958 75.9238 36.9419 75.8623 36.8867C75.8344 36.8616 75.8068 36.8361 75.7793 36.8105C75.7292 36.764 75.6796 36.7169 75.6309 36.6689C75.601 36.6396 75.5713 36.61 75.542 36.5801C75.496 36.5332 75.4509 36.4856 75.4062 36.4375C75.376 36.4049 75.346 36.3721 75.3164 36.3389C75.2717 36.2888 75.2279 36.2379 75.1846 36.1865C75.153 36.149 75.1216 36.1114 75.0908 36.0732C75.0554 36.0294 75.0207 35.9851 74.9863 35.9404C74.9545 35.899 74.9225 35.8576 74.8916 35.8154C74.8574 35.7688 74.8241 35.7214 74.791 35.6738C74.7586 35.6273 74.7266 35.5805 74.6953 35.5332C74.6691 35.4935 74.6436 35.4533 74.6182 35.4131C74.5867 35.3633 74.5556 35.3133 74.5254 35.2627C74.494 35.2101 74.4636 35.157 74.4336 35.1035C74.4085 35.0588 74.3835 35.014 74.3594 34.9688C74.3295 34.9126 74.3009 34.8558 74.2725 34.7988C74.2532 34.7601 74.2334 34.7217 74.2148 34.6826C74.1821 34.6137 74.1516 34.5437 74.1211 34.4736C74.1079 34.4433 74.0938 34.4134 74.0811 34.3828C74.0519 34.3132 74.025 34.2426 73.998 34.1719C73.9837 34.1341 73.9679 34.0967 73.9541 34.0586C73.9232 33.9729 73.8948 33.8861 73.8672 33.7988C73.8607 33.7783 73.854 33.7579 73.8477 33.7373C73.8306 33.6817 73.8155 33.6255 73.7998 33.5693C73.7835 33.5109 73.7668 33.4526 73.752 33.3936C73.7378 33.337 73.7257 33.2798 73.7129 33.2227C73.7021 33.1745 73.6895 33.1267 73.6797 33.0781C73.6655 33.0079 73.6536 32.9371 73.6416 32.8662C73.634 32.8214 73.6259 32.7766 73.6191 32.7314C73.5682 32.3912 73.542 32.0429 73.542 31.6885C73.542 27.828 76.6742 24.6982 80.5381 24.6982ZM324.707 24.8672C328.477 24.8672 331.534 27.9214 331.534 31.6885C331.534 35.4555 328.477 38.5098 324.707 38.5098H184.779C181.009 38.5096 177.953 35.4554 177.953 31.6885C177.953 27.9215 181.009 24.8673 184.779 24.8672H324.707Z" fill="#FBCFE8"/>
</svg>
